<?xml version="1.0" encoding="utf-8"?>
<!-- Generator: Adobe Illustrator 16.0.0, SVG Export Plug-In . SVG Version: 6.00 Build 0)  -->
<!DOCTYPE svg PUBLIC "-//W3C//DTD SVG 1.1//EN" "http://www.w3.org/Graphics/SVG/1.1/DTD/svg11.dtd">
<svg version="1.1" id="Layer_1" xmlns="http://www.w3.org/2000/svg" xmlns:xlink="http://www.w3.org/1999/xlink" x="0px" y="0px"
	 width="512px" height="513px" viewBox="0 0 512 513" enable-background="new 0 0 512 513" xml:space="preserve">
<g transform="translate(0.000000,513.000000) scale(0.100000,-0.100000)">
	<path fill="#184B92" d="M2875.517,4903.408c-62.148-8.223-206.543-48.438-275.088-74.932
		c-351.865-140.747-581.255-422.236-672.646-826.187c-15.537-72.202-19.189-127.036-24.673-376.533l-5.483-292.456l-255.898-4.57
		c-215.684-3.652-260.469-7.31-284.228-20.103c-42.041-22.852-101.45-92.305-112.412-131.606
		c-6.396-22.847-10.054-181.87-10.054-443.247V2327.08l23.76-47.52c12.798-26.514,38.384-60.332,56.665-74.951
		c59.404-48.428,98.706-54.824,355.517-54.824h231.221v-872.802c0-963.262-3.657-908.438,57.573-971.494
		c16.455-17.363,45.698-39.287,65.801-50.254c35.64-20.117,42.954-20.117,475.239-20.117c434.111,0,438.682,0,476.143,20.117
		c43.877,22.842,92.314,75.85,109.668,117.881c10.977,25.605,12.803,183.711,12.803,902.969v872.783l299.775,2.734
		c285.137,2.744,300.674,3.662,335.4,21.934c46.602,25.605,83.154,62.158,108.76,108.76c18.271,35.654,19.189,47.52,21.934,429.546
		c1.826,267.769,0,407.603-7.314,440.508c-12.793,60.317-52.1,113.325-106.934,146.226l-43.867,25.591l-301.592,4.565l-301.592,4.57
		v173.647c0.918,95.957,3.662,189.185,7.305,208.374c12.803,63.97,20.117,64.883,330.85,70.366
		c234.883,4.57,279.648,7.31,310.732,21.021c45.684,20.107,91.387,63.975,116.982,111.499
		c20.098,35.645,20.098,43.867,20.098,434.116c0,392.979,0,398.467-20.098,435.024c-25.596,47.52-64.893,87.734-106.016,107.837
		c-28.33,12.793-78.604,14.629-446.904,13.711C3089.375,4907.978,2891.054,4905.244,2875.517,4903.408z M3618.535,4355.058
		l-2.754-290.625l-246.748-5.479c-194.668-3.657-256.807-8.228-294.287-20.107c-100.527-32.9-186.426-116.069-216.602-211.113
		c-24.668-74.946-34.727-219.341-31.055-446.904c2.734-224.829,6.387-243.105,51.172-283.32
		c42.949-39.297,74.023-42.036,402.119-42.954h312.559v-315.298v-315.303h-325.352c-311.641,0-327.188-0.908-359.17-19.189
		c-18.281-10.059-43.867-32.9-55.752-51.191l-22.842-33.818l-2.734-907.51l-1.836-907.519H2500.81h-324.443l-1.826,907.519
		l-2.744,907.51l-22.847,33.818c-11.875,18.291-37.466,41.133-55.747,51.191c-31.992,18.281-48.438,19.189-308.901,19.189h-275.093
		v315.303v315.298h263.203c274.175,0.918,308.911,5.488,350.952,42.954c47.524,42.959,47.524,45.703,53.921,436.855
		c5.483,355.513,6.396,368.301,29.243,452.393c38.384,142.568,82.251,233.955,159.023,336.318
		c114.238,150.796,295.19,257.725,501.733,297.935c105.098,20.112,107.852,21.025,445.078,21.934l307.988,1.831L3618.535,4355.058z"
		/>
</g>
</svg>
