<?xml version="1.0" encoding="utf-8"?>
<!-- Generator: Adobe Illustrator 16.0.0, SVG Export Plug-In . SVG Version: 6.00 Build 0)  -->
<!DOCTYPE svg PUBLIC "-//W3C//DTD SVG 1.1//EN" "http://www.w3.org/Graphics/SVG/1.1/DTD/svg11.dtd">
<svg version="1.1" id="Layer_1" xmlns="http://www.w3.org/2000/svg" xmlns:xlink="http://www.w3.org/1999/xlink" x="0px" y="0px"
	 width="512px" height="512px" viewBox="0 0 512 512" enable-background="new 0 0 512 512" xml:space="preserve">
<g transform="translate(0.000000,512.000000) scale(0.100000,-0.100000)">
	<path fill="#184B92" d="M1268.325,4839.57c-86.108-11.353-217.646-48.262-310.381-88.955
		c-126.812-53.936-229.009-124.912-337.832-231.841c-141.948-139.106-219.546-260.234-281.997-437.197
		c-66.245-187.363-62.456-88.003-66.245-1460.142c-2.842-1318.203-1.89-1356.045,41.641-1508.408
		c59.614-206.299,143.833-348.242,297.139-502.48c154.243-153.311,296.191-237.52,502.485-297.148
		c152.354-43.535,190.205-44.473,1508.408-41.631c1127.998,3.779,1245.332,4.727,1305.898,19.863
		c253.614,61.514,421.104,154.248,591.446,328.379c180.742,183.574,290.518,407.852,320.801,657.676
		c14.189,118.291,14.189,2446.191,0,2564.477c-30.283,249.824-140.059,474.102-320.801,657.686
		c-170.342,174.121-337.832,266.86-591.446,328.369c-60.566,15.137-176.006,16.084-1329.561,17.974
		C1903.301,4847.143,1305.234,4844.301,1268.325,4839.57z M3936.904,4629.497c343.506-93.691,598.067-349.194,693.633-692.7
		l25.557-94.634V2559.926V1277.685l-25.557-94.629c-94.629-341.611-352.021-599.014-693.633-693.643l-94.629-25.547H2560.034
		H1277.793l-94.634,25.547c-343.501,95.576-598.062,350.127-693.633,693.643l-25.557,94.629v1282.241v1282.236l25.557,94.634
		c105.981,383.257,422.046,663.359,804.355,713.511c33.12,4.731,619.829,7.573,1303.999,6.631l1244.395-0.952L3936.904,4629.497z"/>
	<path fill="#184B92" d="M3679.502,4211.225c-96.523-29.341-175.059-99.365-218.584-193.042
		c-20.82-43.535-25.547-67.192-25.547-133.438c0-71.914,2.832-87.056,30.283-142.891
		c76.631-156.138,244.141-229.946,405.957-179.795c222.383,68.135,310.401,325.527,178.857,517.632
		C3970.967,4195.136,3809.16,4251.918,3679.502,4211.225z M3854.57,4010.605c48.271-35.957,63.408-66.24,63.408-125.859
		c0-59.609-15.137-89.897-63.408-125.85c-65.293-49.214-174.111-18.931-212.91,59.614c-12.305,22.71-21.768,52.993-21.768,66.235
		c0,13.252,9.463,43.535,21.768,66.245C3680.459,4029.536,3789.277,4059.819,3854.57,4010.605z"/>
	<path fill="#184B92" d="M2427.553,3722.934c-515.737-64.351-918.862-440.981-1019.17-952.93
		c-20.82-109.771-20.82-310.386,0-420.161c48.262-246.035,159.927-453.271,336.88-624.561
		c174.121-169.385,367.168-270.635,604.692-316.055c110.718-21.777,311.343-21.777,420.161-0.957
		c290.508,57.734,549.795,218.604,724.863,450.449c104.092,137.207,190.215,337.822,220.488,511.943
		c17.041,98.418,15.146,298.086-4.736,399.341c-91.787,478.828-460.84,849.78-933.057,938.73
		C2678.32,3727.661,2516.504,3734.287,2427.553,3722.934z M2654.668,3534.619c408.809-43.53,743.789-326.479,851.67-720.137
		c106.924-393.662-52.988-831.807-387.979-1058.916c-174.131-118.281-350.137-172.236-558.325-172.236
		c-142.896,0-234.683,17.998-362.432,69.092c-513.848,204.404-756.099,793.008-534.663,1300.22
		c67.183,155.19,202.51,318.906,337.827,410.698c164.658,112.607,314.18,160.869,549.805,178.848
		C2558.139,3543.134,2605.459,3539.35,2654.668,3534.619z"/>
</g>
</svg>
