<?xml version="1.0" encoding="utf-8"?>
<!-- Generator: Adobe Illustrator 16.0.0, SVG Export Plug-In . SVG Version: 6.00 Build 0)  -->
<!DOCTYPE svg PUBLIC "-//W3C//DTD SVG 1.1//EN" "http://www.w3.org/Graphics/SVG/1.1/DTD/svg11.dtd">
<svg version="1.1" id="Layer_1" xmlns="http://www.w3.org/2000/svg" xmlns:xlink="http://www.w3.org/1999/xlink" x="0px" y="0px"
	 width="512px" height="512px" viewBox="0 0 512 512" enable-background="new 0 0 512 512" xml:space="preserve">
<g transform="translate(0.000000,512.000000) scale(0.100000,-0.100000)">
	<path fill="#184B92" d="M675.854,4909.13c-52.754-10.361-149.79-45.21-202.544-72.529c-34.858-17.91-88.555-61.235-137.544-110.225
		c-65.942-65.947-88.555-95.156-119.639-160.156c-88.56-183.701-89.502-374.004-2.832-551.113
		c47.104-96.094,104.57-167.686,180.884-226.099c115.869-87.612,234.57-127.178,385.303-127.178
		c172.397,0,312.773,58.413,439.004,182.764c64.063,64.058,83.848,90.439,119.644,165.806
		c50.874,105.518,65.942,171.46,65.01,287.334c-0.947,104.57-18.848,175.225-68.779,275.088
		c-71.597,143.188-198.774,252.471-356.099,307.109c-65.947,22.612-99.863,28.262-179.941,31.089
		C743.687,4911.962,689.043,4911.02,675.854,4909.13z M897.246,4685.864c93.262-25.435,204.424-115.874,247.759-200.659
		c48.989-95.151,62.178-218.564,34.858-311.826c-65-218.56-289.219-346.685-506.831-290.156
		c-75.366,19.78-117.759,43.33-179.937,98.916c-171.46,157.324-176.172,431.465-10.366,598.213
		C592.012,4688.691,745.566,4728.261,897.246,4685.864z"/>
	<path fill="#184B92" d="M148.296,1820.078V195l629.297,1.885l628.369,2.822l2.822,1623.193l1.89,1622.256H779.482H148.296V1820.078
		z M1193.994,1820.078V402.256l-416.401,1.885l-417.334,2.822L357.437,1822.9l-1.885,1415h419.219h419.224V1820.078z"/>
	<path fill="#184B92" d="M1825.185,1820.078V195h631.187h631.187v923.232c0,907.217,0,923.232,18.838,974.101
		c26.377,69.707,93.271,138.477,164.873,171.455c149.785,68.779,334.434,2.832,406.973-145.078l26.377-53.701l4.717-932.646
		l4.707-932.656l629.297-2.822L4971.709,195v1042.881c0,847.861-2.832,1062.656-14.131,1142.734
		c-72.549,539.805-489.883,964.678-1033.457,1051.348c-179.932,28.271-407.92,7.539-569.951-52.754
		c-65.947-24.492-177.119-81.021-226.104-114.932l-40.508-27.324v104.575v103.628h-631.187h-631.187V1820.078z M2870.888,2986.367
		v-251.533l137.529,143.193c177.129,184.644,272.266,252.476,431.484,307.119c373.057,129.063,798.877,8.477,1071.123-302.412
		c115.889-131.89,191.25-286.387,231.768-473.867c16.006-74.424,16.953-146.953,16.953-1040.986V406.963l-416.406-2.822
		l-416.397-1.885l-2.822,835.625c-2.822,836.552-2.822,836.552-23.555,898.73c-86.68,255.303-349.502,408.857-607.637,356.113
		c-81.016-16.973-195.01-76.328-251.533-132.842c-94.209-92.324-142.256-186.523-161.094-315.596
		c-5.645-37.686-9.414-389.072-9.414-853.506V402.256l-416.406,1.885l-417.334,2.822l-2.822,1415.937l-1.89,1415h419.224h419.229
		V2986.367z"/>
</g>
</svg>
