<?xml version="1.0" encoding="utf-8"?>
<!-- Generator: Adobe Illustrator 16.0.0, SVG Export Plug-In . SVG Version: 6.00 Build 0)  -->
<!DOCTYPE svg PUBLIC "-//W3C//DTD SVG 1.1//EN" "http://www.w3.org/Graphics/SVG/1.1/DTD/svg11.dtd">
<svg version="1.1" id="Layer_1" xmlns="http://www.w3.org/2000/svg" xmlns:xlink="http://www.w3.org/1999/xlink" x="0px" y="0px"
	 width="256px" height="256px" viewBox="0 0 256 256" enable-background="new 0 0 256 256" xml:space="preserve">
<g transform="translate(0.000000,256.000000) scale(0.100000,-0.100000)">
	<path fill="#184B92" d="M1132.998,2338.999C1105,2331.001,1020,2248.999,1020,2230c0-22.998-61.001-43.999-142.002-50
		c-63.999-5-92.998-11.001-107.998-25c-38.999-35-27.002-70,87.998-261.001c99.004-165,111.001-181.001,154.004-201.997
		c103.999-52.002,308.994-52.002,402.002,0.996c47.998,27.002,50.996,33.003,65,125c11.992,80,47.998,159.004,117.998,262.002
		c37.998,55,43.994,70,38.994,100c-10,65-77.998,88.999-158.994,55c-64.004-27.002-87.002-20-145,40
		C1265,2345,1212.002,2362.002,1132.998,2338.999z M1267.998,2040c4.004,0,15-7.002,24.004-13.999
		c15-11.001,15.996-18.003,5.996-47.002c-5.996-18.999-12.998-36.001-15-37.998c-1.997-3.003-22.998,16.001-46.997,41.997
		C1212.998,2008.999,1187.002,2030,1180,2030s-32.002-21.001-56.001-46.001c-41.997-46.001-41.997-46.001-53.999-23.999
		c-10,20-10,23.999,6.001,32.998c11.001,6.001,41.001,32.002,68.999,58.003l48.999,46.997l33.999-28.999
		C1246.001,2052.998,1263.999,2040,1267.998,2040z"/>
	<path fill="#184B92" d="M1380,1596.001c-45-17.002-77.002-21.001-175-21.001c-72.002,0-135,5-156.001,12.998
		c-32.998,11.001-42.998,10-105-12.998c-256.001-96.001-498.999-315-630-567.998c-56.997-111.006-80-177.002-93.999-275
		C186.001,500,306.001,349.004,582.002,275c311.997-82.998,1077.002-82.998,1402.998,0.996
		c355.996,92.002,454.004,355,267.002,719.004c-112.998,219.004-324.004,426.001-550,538.999
		c-64.004,32.002-222.998,86.001-247.998,85C1442.998,1617.998,1410,1607.998,1380,1596.001z M1320,1301.001
		c0-48.003,0.996-50.005,35-61.001c75.996-25,134.004-104.004,135-182.998v-37.998l-67.002,2.998l-67.002,2.998l-7.998,39.004
		c-10,48.994-32.998,75.996-65,75.996c-45,0-62.998-17.002-62.998-60c0-52.002,42.002-100,117.998-135
		C1455.996,890.996,1500,832.998,1500,730c0-97.998-47.002-164.004-139.004-195.996c-33.994-11.006-35.996-15-38.994-58.008
		c-2.998-45-4.004-45.996-37.002-45.996s-33.999,0.996-37.002,45.996c-2.998,45-3.999,47.002-45,59.004
		c-86.997,25.996-141.997,94.004-142.998,177.998V750h63.999c70,0,67.002,2.002,81.001-67.002C1212.998,645,1242.998,620,1280,620
		c42.998,0,62.002,22.002,67.002,75.996c5.996,64.004-16.006,92.002-104.004,134.004C1113.999,890.996,1070,945.996,1070,1045
		c0,94.004,45,155.996,136.001,190.996c43.999,17.002,43.999,17.002,43.999,65.005V1350h35h35V1301.001z"/>
</g>
</svg>
