<?xml version="1.0" encoding="utf-8"?>
<!-- Generator: Adobe Illustrator 16.0.0, SVG Export Plug-In . SVG Version: 6.00 Build 0)  -->
<!DOCTYPE svg PUBLIC "-//W3C//DTD SVG 1.1//EN" "http://www.w3.org/Graphics/SVG/1.1/DTD/svg11.dtd">
<svg version="1.1" id="Layer_1" xmlns="http://www.w3.org/2000/svg" xmlns:xlink="http://www.w3.org/1999/xlink" x="0px" y="0px"
	 width="656px" height="523px" viewBox="71.5 137.5 656 523" enable-background="new 71.5 137.5 656 523" xml:space="preserve">
<path fill="none" stroke="#373E43" stroke-width="52" stroke-linecap="round" stroke-linejoin="round" d="M99.5,299h600
	 M232.833,499H299.5 M206.166,632.333h386.667c37.337,0,56.007,0,70.267-7.267c12.543-6.39,22.743-16.59,29.133-29.133
	c7.268-14.261,7.268-32.931,7.268-70.267V272.334c0-37.337,0-56.006-7.268-70.267c-6.39-12.544-16.59-22.743-29.133-29.134
	c-14.26-7.267-32.93-7.267-70.267-7.267H206.166c-37.336,0-56.005,0-70.266,7.267c-12.544,6.391-22.743,16.59-29.135,29.134
	C99.5,216.328,99.5,234.996,99.5,272.334v253.333c0,37.336,0,56.006,7.266,70.267c6.392,12.543,16.591,22.743,29.135,29.133
	C150.161,632.333,168.829,632.333,206.166,632.333z"/>
</svg>
