<?xml version="1.0" encoding="utf-8"?>
<!-- Generator: Adobe Illustrator 16.0.0, SVG Export Plug-In . SVG Version: 6.00 Build 0)  -->
<!DOCTYPE svg PUBLIC "-//W3C//DTD SVG 1.1//EN" "http://www.w3.org/Graphics/SVG/1.1/DTD/svg11.dtd">
<svg version="1.1" id="Layer_1" xmlns="http://www.w3.org/2000/svg" xmlns:xlink="http://www.w3.org/1999/xlink" x="0px" y="0px"
	 width="256px" height="256px" viewBox="0 0 256 256" enable-background="new 0 0 256 256" xml:space="preserve">
<g transform="translate(0.000000,256.000000) scale(0.100000,-0.100000)">
	<path fill="#184B92" d="M1218.999,2441.001c-27.998-28.003-28.999-33.999-28.999-115V2240h90h90v86.001
		c0,81.001-0.996,86.997-29.004,115c-20,20-38.994,28.999-60.996,28.999S1238.999,2461.001,1218.999,2441.001z"/>
	<path fill="#184B92" d="M1040,2175c-320-58.999-592.002-218.999-771.001-453.999c-58.999-78.003-141.001-241.001-165-328.999
		C87.998,1332.998,87.998,1328.999,105,1310c10-11.001,22.998-20,30-20c6.001,0,41.001,22.998,76.001,52.002
		C290,1405,340,1427.998,417.002,1436.001c140.996,15,280.996-66.001,378.999-218.003c60-92.002,77.998-92.002,137.998,0
		C986.001,1300,1062.002,1370,1137.998,1407.002c49.004,22.998,70,26.997,142.002,26.997s92.998-3.999,142.002-26.997
		c75.996-37.002,152.002-107.002,203.994-189.004c60-92.002,78.008-92.002,138.008,0
		c97.998,152.002,237.998,233.003,378.994,218.003C2220,1427.998,2270,1405,2349.004,1342.002c35-29.004,70-52.002,75.996-52.002
		c7.002,0,20,8.999,30,20c17.002,18.999,17.002,22.002,0,82.002c-24.004,88.999-85,215-144.004,300.996
		C2250,1781.001,2119.004,1910,2032.998,1968.999c-142.002,95-345,173.999-527.002,206.001
		C1395.996,2193.999,1143.999,2193.999,1040,2175z"/>
	<path fill="#184B92" d="M1207.998,1382.998C1191.001,1378.999,1190,1350,1190,947.002c0-420-1.001-432.002-21.001-475
		c-41.997-85-158.999-129.004-236.997-87.998C868.999,417.002,820,495,820,560.996c0,18.008-10,36.006-31.001,53.008
		c-41.997,35.996-81.997,33.994-121.001-5c-28.999-29.004-30.996-33.008-25-92.002C651.001,430,680,369.004,745,300.996
		c76.001-80,152.998-113.994,255-115c41.001,0,92.998,6.006,115,13.008c66.001,22.998,142.998,80,185,138.994
		c69.004,96.006,70,102.002,70,597.998v442.002l-22.002,6.001C1322.002,1390,1233.999,1390,1207.998,1382.998z"/>
</g>
</svg>
