<?xml version="1.0" encoding="utf-8"?>
<!-- Generator: Adobe Illustrator 16.0.0, SVG Export Plug-In . SVG Version: 6.00 Build 0)  -->
<!DOCTYPE svg PUBLIC "-//W3C//DTD SVG 1.1//EN" "http://www.w3.org/Graphics/SVG/1.1/DTD/svg11.dtd">
<svg version="1.1" id="Layer_1" xmlns="http://www.w3.org/2000/svg" xmlns:xlink="http://www.w3.org/1999/xlink" x="0px" y="0px"
	 width="512px" height="512px" viewBox="0 0 512 512" enable-background="new 0 0 512 512" xml:space="preserve">
<g transform="translate(0.000000,512.000000) scale(0.100000,-0.100000)">
	<path fill="#184B92" d="M686.953,4467.958c7.534-12.051,337.451-491.865,732.905-1068.091
		c395.454-576.235,719.346-1050.776,719.346-1054.536c0-4.521-324.644-385.664-722.358-848.154
		c-396.953-461.748-726.88-845.898-732.905-852.666c-9.79-12.061,0.757-12.813,155.176-12.813h165.713l639.497,743.447
		c351.768,408.261,643.271,744.209,647.036,744.961c4.521,1.504,238.022-332.93,518.989-742.695l511.445-745.713h560.42
		c531.026,0,559.658,0.752,552.871,13.555c-3.77,6.777-346.485,506.182-760.772,1108.779
		c-414.287,602.588-753.994,1097.471-753.994,1099.731c0,3.013,314.854,370.601,699.766,817.266l699.004,813.506l-161.943,2.261
		c-133.321,1.504-164.199,0-174.004-9.038c-6.777-6.03-281.719-324.648-610.879-707.3
		c-329.16-383.398-601.084-695.244-604.102-693.735c-3.008,2.261-222.959,320.132-488.853,707.295L1795.732,4488.3h-561.167H674.15
		L686.953,4467.958z M2807.324,2563.012c644.033-921.968,1172.813-1678.979,1173.564-1683.491
		c2.256-4.531-88.887-6.035-251.592-5.273l-254.59,2.256L2301.152,2554.726c-645.527,923.477-1173.55,1680.483-1173.55,1681.992
		c0,1.504,114.492,3.013,254.595,3.013l253.847-0.757L2807.324,2563.012z"/>
</g>
</svg>
