<?xml version="1.0" encoding="utf-8"?>
<!-- Generator: Adobe Illustrator 16.0.0, SVG Export Plug-In . SVG Version: 6.00 Build 0)  -->
<!DOCTYPE svg PUBLIC "-//W3C//DTD SVG 1.1//EN" "http://www.w3.org/Graphics/SVG/1.1/DTD/svg11.dtd">
<svg version="1.1" id="Layer_1" xmlns="http://www.w3.org/2000/svg" xmlns:xlink="http://www.w3.org/1999/xlink" x="0px" y="0px"
	 width="256px" height="256px" viewBox="0 0 256 256" enable-background="new 0 0 256 256" xml:space="preserve">
<g transform="translate(0.000000,256.000000) scale(0.100000,-0.100000)">
	<path fill="#184B92" d="M1091.001,2435c-100-22.002-158.999-43.999-251.001-91.001c-273.999-140-465-410-510-718.999
		c-7.002-52.998-10-226.001-7.998-520L325,665l27.998-57.002c30-62.002,83.003-115,149.004-150
		c40-20.996,56.997-22.998,250.996-25.996L960,429.004v425V1280H743.999H527.002l5.996,162.998
		c4.004,117.002,11.001,184.004,26.001,240C643.999,2006.001,947.002,2240,1280,2240s635.996-233.999,720.996-557.002
		c15-55.996,22.002-122.998,26.006-240l5.996-162.998h-217.002H1600V855V430l212.998-2.002L2025,425l2.998-52.002l2.998-52.998h-375
		H1280V215V109.004l367.998,2.998c361.006,2.998,367.998,2.998,410,25.996c66.006,35,119.004,87.998,149.004,150L2235,345l2.998,600
		c2.002,412.002,0,625-7.998,680c-54.004,377.998-317.002,680-687.002,791.001c-73.994,21.997-110.996,26.997-237.998,30
		C1198.999,2448.999,1136.001,2445,1091.001,2435z"/>
</g>
</svg>
